<svg width="24" height="24" viewBox="0 0 24 24">
    <path
        d="M18.802 1.52H5.198c-1.148 0-2.082.964-2.082 2.159V17.85c0 1.195.934 2.16 2.082 2.16H16.71l-.538-1.94 1.3 1.247 1.228 1.175 2.183 1.991V3.68c0-1.195-.934-2.16-2.082-2.16Zm-3.919 13.69s-.365-.451-.67-.85c1.33-.387 1.838-1.247 1.838-1.247a5.736 5.736 0 0 1-1.168.618c-.507.22-.994.367-1.472.451a6.891 6.891 0 0 1-2.63-.01 8.32 8.32 0 0 1-1.492-.451 5.883 5.883 0 0 1-.741-.356c-.03-.021-.061-.032-.091-.053-.02-.01-.03-.02-.041-.031-.183-.105-.284-.179-.284-.179s.487.84 1.776 1.237c-.304.399-.68.87-.68.87-2.244-.073-3.096-1.593-3.096-1.593 0-3.375 1.462-6.111 1.462-6.111 1.462-1.132 2.853-1.1 2.853-1.1l.101.125c-1.827.545-2.67 1.373-2.67 1.373s.223-.125.599-.304c1.086-.492 1.95-.629 2.305-.66.06-.01.111-.021.172-.021a8.323 8.323 0 0 1 2.051-.021c.965.115 2 .409 3.056 1.006 0 0-.802-.786-2.528-1.331l.142-.168s1.391-.031 2.853 1.101c0 0 1.462 2.736 1.462 6.111 0 0-.863 1.52-3.107 1.594Zm-4.72-4.896c-.58 0-1.036.524-1.036 1.164 0 .64.467 1.163 1.035 1.163.58 0 1.036-.524 1.036-1.163.01-.64-.457-1.164-1.036-1.164Zm3.705 0c-.579 0-1.036.524-1.036 1.164 0 .64.468 1.163 1.036 1.163.579 0 1.036-.524 1.036-1.163 0-.64-.457-1.164-1.036-1.164Z"
        fill="#7289DA"
    />
</svg>
