<svg width="16" height="16" viewBox="0 0 16 16" fill="none" xmlns="http://www.w3.org/2000/svg">
<path d="M15.9806 6.84742C14.3948 5.40692 12.4149 4.38973 10.2208 3.97523V5.50872L10.2214 5.50886V15.7253C9.74438 15.8608 9.24923 15.9538 8.74044 15.9998V3.48376L7.2594 1.76237V15.9998C6.75075 15.9538 6.25575 15.8608 5.77882 15.7253V4.34462L5.77826 4.34495V3.97537C3.58463 4.38994 1.60506 5.40697 0.0195096 6.84718C0.589054 2.97403 3.9451 0 8.00002 0C12.055 0 15.4111 2.97415 15.9806 6.84742Z" fill="#FFDF37"/>
<path d="M16 9.04477C14.871 7.67307 13.3936 6.59694 11.7025 5.95062V15.1405C14.0032 13.9569 15.6574 11.7047 16 9.04477Z" fill="#FFDF37"/>
<path d="M4.29778 15.1407V5.95044C2.60654 6.59671 1.12903 7.67281 0 9.04452C0.342579 11.7046 1.9969 13.957 4.29778 15.1407Z" fill="#FFDF37"/>
</svg>
