<svg width="24" height="24" viewBox="0 0 24 24" fill="currentColor" xmlns="http://www.w3.org/2000/svg">
<path fill-rule="evenodd" clip-rule="evenodd" d="M6.73787 9.99237L7.40473 10.1965C7.42192 10.2018 7.4394 10.2071 7.45717 10.2126C8.26439 10.4599 9.66148 10.8879 11.0527 10.8879H11.5927L11.7089 11.4153C11.9198 12.3725 11.5906 13.1941 11.0179 13.7577C10.4637 14.3031 9.68511 14.6095 8.93103 14.6286C8.17053 14.6478 7.35319 14.371 6.84042 13.6433C6.33121 12.9206 6.22925 11.9047 6.55862 10.6663L6.73787 9.99237ZM7.72775 11.6962C7.66719 12.2949 7.79183 12.6602 7.93905 12.8692C8.13212 13.1432 8.46816 13.2959 8.8971 13.285C9.33245 13.274 9.77936 13.0909 10.0752 12.7998C10.2423 12.6353 10.3615 12.4385 10.4077 12.2073C9.39441 12.1322 8.43659 11.8984 7.72775 11.6962Z" fill="#DBDBDB"/>
<path fill-rule="evenodd" clip-rule="evenodd" d="M17.2622 9.99237L16.5953 10.1965C16.5781 10.2018 16.5606 10.2071 16.5429 10.2126C15.7356 10.4599 14.3386 10.8879 12.9474 10.8879H12.4073L12.2911 11.4153C12.0802 12.3725 12.4095 13.1941 12.9822 13.7577C13.5364 14.3031 14.3149 14.6095 15.069 14.6286C15.8295 14.6478 16.6468 14.371 17.1596 13.6433C17.6688 12.9206 17.7708 11.9047 17.4414 10.6663L17.2622 9.99237ZM16.2723 11.6962C16.3328 12.2949 16.2082 12.6602 16.061 12.8692C15.8679 13.1432 15.5319 13.2959 15.1029 13.285C14.6676 13.274 14.2207 13.0909 13.9248 12.7998C13.7577 12.6353 13.6385 12.4385 13.5924 12.2073C14.6056 12.1322 15.5634 11.8984 16.2723 11.6962Z" fill="#DBDBDB"/>
<path fill-rule="evenodd" clip-rule="evenodd" d="M19.7137 4.28665C16.9 5.34855 14.4648 5.90051 12.0001 5.90052C9.5355 5.90053 7.10046 5.34866 4.287 4.2869C5.34866 7.09916 5.90046 9.53358 5.90042 11.9981C5.90039 14.4629 5.34836 16.8987 4.28634 19.7136C7.10001 18.6517 9.53519 18.0997 11.9999 18.0997C14.4645 18.0997 16.8996 18.6516 19.713 19.7133C18.6514 16.9011 18.0996 14.4667 18.0996 12.0022C18.0997 9.53731 18.6517 7.1015 19.7137 4.28665ZM20.4879 2.08694C21.3847 1.71273 22.2874 2.61536 21.9133 3.51214C20.5203 6.85182 19.8572 9.44752 19.8571 12.0022C19.8571 14.5568 20.5201 17.151 21.913 20.4877C22.2874 21.3846 21.3846 22.2875 20.4877 21.9132C17.1495 20.5202 14.5546 19.8572 11.9999 19.8572C9.4453 19.8572 6.85034 20.5203 3.51212 21.9133C2.61537 22.2875 1.71265 21.3849 2.08672 20.4881C3.47978 17.1484 4.14288 14.5527 4.14291 11.9981C4.14295 9.44344 3.47996 6.84923 2.08704 3.51251C1.71265 2.61567 2.61547 1.71277 3.51233 2.08702C6.85051 3.48 9.44546 4.14302 12.0001 4.14301C14.5547 4.143 17.1497 3.47994 20.4879 2.08694Z" fill="#DBDBDB"/>
</svg>
