<svg width="24" height="24" viewBox="0 0 24 24" fill="none" xmlns="http://www.w3.org/2000/svg">
<path d="M12 1.49998C6.20156 1.49998 1.5 6.20155 1.5 12C1.5 17.7984 6.20156 22.5 12 22.5C17.7984 22.5 22.5 17.7984 22.5 12C22.5 6.20155 17.7984 1.49998 12 1.49998ZM12 20.7187C7.18594 20.7187 3.28125 16.814 3.28125 12C3.28125 7.18592 7.18594 3.28123 12 3.28123C16.8141 3.28123 20.7188 7.18592 20.7188 12C20.7188 16.814 16.8141 20.7187 12 20.7187Z" fill="#DBDBDB"/>
<path d="M16.0945 14.9671L12.7523 12.5507V6.74998C12.7523 6.64686 12.668 6.56248 12.5648 6.56248H11.4375C11.3344 6.56248 11.25 6.64686 11.25 6.74998V13.2047C11.25 13.2656 11.2781 13.3218 11.3273 13.357L15.2039 16.1835C15.2883 16.2445 15.4055 16.2257 15.4664 16.1437L16.1367 15.2296C16.1976 15.1429 16.1789 15.0257 16.0945 14.9671Z" fill="#DBDBDB"/>
</svg>
