<svg width="16" height="16" viewBox="0 0 16 16" fill="none" xmlns="http://www.w3.org/2000/svg">
<path d="M11.8592 5.23438C11.8592 3.09375 10.1248 1.35938 7.98416 1.35938C5.84354 1.35938 4.10916 3.09375 4.10916 5.23438C4.10916 6.52812 4.74354 7.675 5.71854 8.37813C5.71229 8.38125 5.7076 8.38281 5.70447 8.38437C5.00604 8.67969 4.37947 9.10313 3.84041 9.64375C3.30135 10.1828 2.87947 10.8109 2.58416 11.5109C2.2951 12.1953 2.14041 12.9219 2.12479 13.6687C2.12323 13.7391 2.17948 13.7969 2.24979 13.7969H3.18572C3.25291 13.7969 3.30916 13.7422 3.31072 13.675C3.34197 12.4688 3.82479 11.3391 4.67947 10.4828C5.56229 9.59688 6.73416 9.10938 7.98416 9.10938C10.1248 9.10938 11.8592 7.375 11.8592 5.23438ZM7.98416 7.92188C6.49979 7.92188 5.29666 6.71875 5.29666 5.23438C5.29666 3.75 6.49979 2.54688 7.98416 2.54688C9.46854 2.54688 10.6717 3.75 10.6717 5.23438C10.6717 6.71875 9.46854 7.92188 7.98416 7.92188ZM9.62479 11.375H13.7498C13.8185 11.375 13.8748 11.3188 13.8748 11.25V10.375C13.8748 10.3062 13.8185 10.25 13.7498 10.25H10.992L11.7295 9.31094C11.7467 9.28906 11.756 9.26094 11.756 9.23438C11.756 9.16563 11.6998 9.10938 11.631 9.10938H10.4967C10.4201 9.10938 10.3482 9.14531 10.2998 9.20469L9.22947 10.5656C9.16072 10.6531 9.12322 10.7625 9.12322 10.875C9.12479 11.1516 9.34822 11.375 9.62479 11.375ZM13.3748 12.375H9.24979C9.18104 12.375 9.12479 12.4312 9.12479 12.5V13.375C9.12479 13.4438 9.18104 13.5 9.24979 13.5H12.0076L11.2701 14.4391C11.2529 14.4609 11.2435 14.4891 11.2435 14.5156C11.2435 14.5844 11.2998 14.6406 11.3685 14.6406H12.5029C12.5795 14.6406 12.6513 14.6047 12.6998 14.5453L13.7701 13.1844C13.8388 13.0969 13.8763 12.9875 13.8763 12.875C13.8748 12.5984 13.6513 12.375 13.3748 12.375Z" fill="#F5C913"/>
</svg>
