<svg width="14" height="14" viewBox="0 0 14 14" fill="none" xmlns="http://www.w3.org/2000/svg">
<path fill-rule="evenodd" clip-rule="evenodd" d="M13.3334 6.99996C13.3334 10.4978 10.4978 13.3333 7.00002 13.3333C3.50222 13.3333 0.666687 10.4978 0.666687 6.99996C0.666687 3.50216 3.50222 0.666626 7.00002 0.666626C10.4978 0.666626 13.3334 3.50216 13.3334 6.99996ZM10.3276 9.54977H8.16967L7.00306 6.2919L5.84578 9.52498H3.6567L1.81812 4.45019H3.49804L4.73413 7.90637L5.96607 4.46568H8.04005L8.7986 6.58514H8.79804L9.86048 9.54967L10.3276 9.54977ZM10.5906 8.82846L9.73656 6.59092L10.4967 4.46465H12.1818L10.5906 8.82846Z" fill="#F78E1D"/>
</svg>
